<?xml version="1.0" encoding="utf-8"?>
<!-- Generator: Adobe Illustrator 16.0.0, SVG Export Plug-In . SVG Version: 6.00 Build 0)  -->
<!DOCTYPE svg PUBLIC "-//W3C//DTD SVG 1.1//EN" "http://www.w3.org/Graphics/SVG/1.1/DTD/svg11.dtd">
<svg version="1.1" id="Touch_ID" xmlns="http://www.w3.org/2000/svg" xmlns:xlink="http://www.w3.org/1999/xlink" x="0px" y="0px"
	 width="216px" height="214px" viewBox="174.5 144.5 216 214" enable-background="new 174.5 144.5 216 214" xml:space="preserve">
<g id="Large">
	<g>
		<path fill="none" stroke="#000" stroke-width="8" stroke-linecap="round" stroke-miterlimit="10" d="M190.719,227.906
			c-2.523,8.59-3.875,17.684-3.875,27.094c0,10.613,1.723,20.824,4.902,30.371"/>
		<path fill="none" stroke="#000" stroke-width="8" stroke-linecap="round" stroke-miterlimit="10" d="M281.766,159
			c-37.504,0.414-69.852,22.345-85.281,54.021"/>
		<path fill="none" stroke="#000" stroke-width="8" stroke-linecap="round" stroke-miterlimit="10" d="M378.844,252.258
			c-1.31-46.715-36.047-85.098-81.121-92.112"/>
		<path fill="none" stroke="#000" stroke-width="8" stroke-linecap="round" stroke-miterlimit="10" d="M277.18,336.988
			c-1.91,5.297-3.844,9.813-5.492,13.352"/>
		<path fill="none" stroke="#000" stroke-width="8" stroke-linecap="round" stroke-miterlimit="10" d="M282.844,255
			c0,0,6.266,25.34,1.602,54.172c-0.702,4.349-1.586,8.517-2.577,12.461"/>
		<path fill="none" stroke="#000" stroke-width="8" stroke-linecap="round" stroke-miterlimit="10" d="M301.198,303.711
			c-0.207,1.816-0.457,3.642-0.754,5.461c-2.905,17.966-8.016,33.134-11.452,41.828"/>
		<path fill="none" stroke="#000" stroke-width="8" stroke-linecap="round" stroke-miterlimit="10" d="M255.184,346.934
			c4.517-8.879,10.051-22.117,12.75-37.672c3.984-22.988,0.531-43.98-0.84-51.435c-0.164-0.918-0.25-1.863-0.25-2.828
			c0-8.836,7.164-16,16-16c7.586,0,13.938,5.277,15.582,12.363c0,0,3.729,16.18,3.672,36.387"/>
		<path fill="none" stroke="#000" stroke-width="8" stroke-linecap="round" stroke-miterlimit="10" d="M365.676,283.75
			c0.117,6.371,0.035,13.25-0.363,20.438"/>
		<path fill="none" stroke="#000" stroke-width="8" stroke-linecap="round" stroke-miterlimit="10" d="M251.461,181.387
			c9.637-4.109,20.246-6.388,31.383-6.388c40.391,0,73.901,30.109,79.336,69c0,0,1.727,9.285,2.77,23.738"/>
		<path fill="none" stroke="#000" stroke-width="8" stroke-linecap="round" stroke-miterlimit="10" d="M202.547,307.629
			c0.957-2.44,1.789-5.034,2.422-7.754c2.309-9.926,0.375-23.94-1.02-31.543c-0.728-4.336-1.105-8.789-1.105-13.332
			c0-27.367,13.742-51.522,34.699-65.948"/>
		<path fill="none" stroke="#000" stroke-width="8" stroke-linecap="round" stroke-miterlimit="10" d="M298.766,192.996
			c-5.09-1.305-10.426-1.996-15.922-1.996c-35.348,0-64,28.652-64,64c0,3.316,0.254,6.574,0.742,9.758
			c1.522,8.355,3.5,22.552,0.858,36.914c-1.391,7.57-3.914,14.341-6.69,20.031"/>
		<path fill="none" stroke="#000" stroke-width="8" stroke-linecap="round" stroke-miterlimit="10" d="M346.652,326.688
			c0.57-3.324,1.086-6.758,1.531-10.281c4.664-36.941-2.063-71.047-2.063-71.047c-3.034-20.082-15.397-37.105-32.539-46.508"/>
		<path fill="none" stroke="#000" stroke-width="8" stroke-linecap="round" stroke-miterlimit="10" d="M328.363,239.734
			c0.609,1.815,1.113,3.684,1.504,5.594c1.867,9.771,5.867,33.988,3.242,60.836c-1.258,12.887-3.629,24.527-6.125,34.09"/>
		<path fill="none" stroke="#000" stroke-width="8" stroke-linecap="round" stroke-miterlimit="10" d="M237.176,297.02
			c1.977-18.267-1.414-32.638-1.414-32.638c-0.602-3.034-0.918-6.172-0.918-9.383c0-26.508,21.492-48,48-48
			c15.401,0,29.112,7.254,37.895,18.535"/>
		<path fill="none" stroke="#000" stroke-width="8" stroke-linecap="round" stroke-miterlimit="10" d="M226.25,332.625
			c2.887-5.604,5.78-12.34,7.897-19.862"/>
		<path fill="none" stroke="#000" stroke-width="8" stroke-linecap="round" stroke-miterlimit="10" d="M271.832,224.945
			c3.434-1.258,7.141-1.945,11.012-1.945c15.444,0,28.34,10.853,31.344,25.41c1.707,8.191,5.789,31.738,2.883,58.051
			c-1.852,16.703-5.828,31.164-9.276,41.316"/>
		<path fill="none" stroke="#000" stroke-width="8" stroke-linecap="round" stroke-miterlimit="10" d="M240.285,341.098
			c4.758-9.078,9.684-20.978,11.758-34.099c3.129-19.793,0.776-37.512-0.699-46.25c-0.359-1.914-0.5-3.729-0.5-5.75
			c0-8.078,2.996-15.457,7.934-21.09"/>
	</g>
</g>
</svg>
